<?xml version="1.0"?>
<svg xmlns="http://www.w3.org/2000/svg" xmlns:xlink="http://www.w3.org/1999/xlink" version="1.1" id="Capa_1" x="0px" y="0px" viewBox="0 0 58 58" style="enable-background:new 0 0 58 58;" xml:space="preserve" width="512px" height="512px" class=""><g><g>
	<g>
		<polygon style="fill:#E3E3E3" points="46.5,14 32.5,0 1.5,0 1.5,58 46.5,58   " data-original="#EFEBDE" class="" data-old_color="#EFEBDE"/>
		<g>
			<path style="fill:#F8F8F8" d="M11.5,23h25c0.552,0,1-0.447,1-1s-0.448-1-1-1h-25c-0.552,0-1,0.447-1,1S10.948,23,11.5,23z" data-original="#D5D0BB" class="" data-old_color="#D5D0BB"/>
			<path style="fill:#F8F8F8" d="M11.5,15h10c0.552,0,1-0.447,1-1s-0.448-1-1-1h-10c-0.552,0-1,0.447-1,1S10.948,15,11.5,15z" data-original="#D5D0BB" class="" data-old_color="#D5D0BB"/>
			<path style="fill:#F8F8F8" d="M36.5,29h-25c-0.552,0-1,0.447-1,1s0.448,1,1,1h25c0.552,0,1-0.447,1-1S37.052,29,36.5,29z" data-original="#D5D0BB" class="" data-old_color="#D5D0BB"/>
			<path style="fill:#F8F8F8" d="M36.5,37h-25c-0.552,0-1,0.447-1,1s0.448,1,1,1h25c0.552,0,1-0.447,1-1S37.052,37,36.5,37z" data-original="#D5D0BB" class="" data-old_color="#D5D0BB"/>
			<path style="fill:#F8F8F8" d="M36.5,45h-25c-0.552,0-1,0.447-1,1s0.448,1,1,1h25c0.552,0,1-0.447,1-1S37.052,45,36.5,45z" data-original="#D5D0BB" class="" data-old_color="#D5D0BB"/>
		</g>
		<polygon style="fill:#F8F8F8" points="32.5,0 32.5,14 46.5,14   " data-original="#D5D0BB" class="" data-old_color="#D5D0BB"/>
	</g>
	<g>
		<circle style="fill:#E21B1B" cx="44.5" cy="46" r="12" data-original="#ED7161" class="active-path" data-old_color="#ED7161"/>
		<path style="fill:#FFFFFF" d="M45.914,46l3.536-3.536c0.391-0.391,0.391-1.023,0-1.414s-1.023-0.391-1.414,0L44.5,44.586    l-3.536-3.536c-0.391-0.391-1.023-0.391-1.414,0s-0.391,1.023,0,1.414L43.086,46l-3.536,3.536c-0.391,0.391-0.391,1.023,0,1.414    c0.195,0.195,0.451,0.293,0.707,0.293s0.512-0.098,0.707-0.293l3.536-3.536l3.536,3.536c0.195,0.195,0.451,0.293,0.707,0.293    s0.512-0.098,0.707-0.293c0.391-0.391,0.391-1.023,0-1.414L45.914,46z" data-original="#FFFFFF" class="" data-old_color="#FFFFFF"/>
	</g>
</g></g> </svg>
